<?xml version="1.0" standalone="no"?>
<!DOCTYPE svg PUBLIC "-//W3C//DTD SVG 20010904//EN"
 "http://www.w3.org/TR/2001/REC-SVG-20010904/DTD/svg10.dtd">
<svg version="1.0" xmlns="http://www.w3.org/2000/svg"
 width="1051.000000pt" height="393.000000pt" viewBox="0 0 1051.000000 393.000000"
 preserveAspectRatio="xMidYMid meet">

<g transform="translate(0.000000,393.000000) scale(0.100000,-0.100000)"
fill="#000000" stroke="none">
<path d="M2210 3255 c-158 -44 -423 -209 -604 -376 -250 -230 -477 -595 -464
-745 4 -52 27 -55 115 -11 128 64 163 72 323 72 137 0 150 -2 235 -32 50 -17
144 -61 210 -97 161 -87 254 -117 377 -124 58 -3 123 0 160 8 190 37 354 192
412 389 19 65 21 145 4 159 -7 5 -66 29 -131 53 l-118 43 -87 -18 c-108 -23
-184 -50 -207 -76 -10 -11 -30 -20 -44 -20 -15 0 -73 -27 -131 -60 l-105 -60
46 43 c57 52 178 125 292 174 48 20 83 41 79 45 -13 13 -250 30 -357 26 -86
-3 -106 -7 -145 -30 -25 -14 -56 -38 -69 -52 -14 -14 -34 -26 -45 -26 -17 1
-11 9 29 45 27 24 47 46 43 50 -11 11 -231 -23 -313 -49 -43 -14 -80 -24 -81
-23 -2 1 12 13 30 25 74 51 288 111 489 139 l59 8 -22 28 c-12 15 -42 39 -66
53 -25 15 -43 29 -40 31 13 13 61 -12 110 -57 43 -38 64 -50 98 -54 73 -9 378
-14 383 -6 3 4 -13 30 -35 58 -46 57 -154 142 -252 198 -37 21 -66 40 -63 42
10 10 112 -34 195 -84 50 -30 95 -52 100 -49 5 3 14 -5 21 -17 13 -25 95 -122
142 -169 42 -42 184 -78 200 -51 11 17 -37 164 -82 257 -77 156 -194 261 -359
323 -86 32 -248 40 -332 17z"/>
<path d="M3145 2559 c-4 -6 -13 -61 -21 -123 -23 -190 -77 -307 -199 -435 -76
-80 -113 -108 -286 -221 -225 -146 -339 -332 -339 -550 1 -185 87 -356 229
-454 l40 -28 63 45 c93 67 135 112 168 182 44 92 63 178 56 246 -5 38 -3 58 4
61 7 2 14 53 19 128 l7 125 8 -70 c5 -38 6 -146 3 -238 l-6 -169 21 19 c30 27
143 200 189 289 l40 78 -5 135 c-5 129 -5 133 8 81 8 -30 17 -73 21 -95 l8
-40 38 80 c57 120 82 209 89 315 l6 95 8 -77 c15 -136 -17 -293 -98 -496 -25
-63 -46 -116 -46 -118 0 -11 50 -1 89 16 52 24 51 24 51 6 0 -8 6 -16 12 -18
7 -3 -12 -8 -42 -11 -30 -4 -74 -17 -99 -29 -37 -20 -51 -37 -94 -113 -27 -50
-74 -126 -103 -171 -30 -44 -54 -83 -54 -87 0 -15 76 -6 148 19 69 23 170 73
272 135 31 18 29 15 -16 -28 -28 -26 -92 -72 -142 -102 -51 -30 -92 -57 -92
-61 0 -4 -19 -10 -42 -13 -24 -3 -86 -15 -138 -26 -94 -20 -96 -21 -153 -81
-32 -33 -57 -65 -55 -72 2 -7 35 -24 74 -37 96 -33 261 -40 371 -16 239 53
416 237 467 487 19 89 21 300 6 428 -36 297 -150 639 -280 839 -79 121 -183
207 -205 170z"/>
<path d="M4440 2356 c-200 -43 -310 -193 -310 -421 1 -217 87 -356 253 -407
61 -18 85 -20 186 -15 64 3 145 14 181 24 l65 18 3 218 2 217 -170 0 -171 0 3
-72 3 -73 78 -3 78 -3 -3 -87 -3 -87 -85 -3 c-97 -3 -136 12 -182 69 -79 99
-71 324 15 418 63 68 188 89 309 51 34 -11 63 -20 64 -20 1 0 14 30 29 66 17
40 24 69 19 74 -6 6 -45 19 -88 30 -88 22 -191 25 -276 6z"/>
<path d="M7710 1940 l0 -420 240 0 240 0 0 75 0 75 -150 0 -150 0 0 105 0 105
140 0 140 0 0 75 0 75 -140 0 -140 0 0 90 0 90 150 0 150 0 0 75 0 75 -240 0
-240 0 0 -420z"/>
<path d="M5269 2150 c-21 -11 -53 -38 -72 -60 -38 -45 -39 -45 -53 33 l-6 37
-69 0 -69 0 0 -320 0 -320 90 0 90 0 0 193 c0 175 2 195 20 225 26 43 90 71
158 72 l52 0 0 49 c0 27 3 63 6 80 l7 31 -59 0 c-38 -1 -72 -8 -95 -20z"/>
<path d="M5683 2154 c-61 -23 -126 -85 -153 -146 -28 -66 -38 -202 -20 -276
36 -153 162 -230 359 -220 57 3 113 12 139 23 l42 17 0 67 0 67 -72 -24 c-98
-33 -203 -29 -243 8 -34 32 -55 72 -55 105 l0 25 206 0 207 0 -6 83 c-7 104
-22 147 -65 198 -53 62 -101 82 -207 86 -63 2 -103 -2 -132 -13z m172 -118
c36 -16 65 -59 65 -101 l0 -25 -121 0 -121 0 6 33 c12 59 62 107 114 107 12 0
38 -6 57 -14z"/>
<path d="M6376 2154 c-66 -21 -137 -93 -162 -165 -28 -81 -26 -236 4 -305 29
-63 81 -116 147 -146 44 -20 65 -23 170 -22 82 0 133 5 160 16 l40 15 3 68 c3
61 1 67 -15 62 -218 -68 -329 -40 -350 87 l-6 36 208 0 207 0 -4 88 c-7 132
-48 205 -143 255 -53 27 -189 33 -259 11z m181 -124 c36 -22 49 -42 54 -85 l4
-30 -123 -3 -124 -3 7 33 c4 18 12 41 17 51 14 27 69 57 103 57 17 0 44 -9 62
-20z"/>
<path d="M7186 2155 c-21 -7 -53 -28 -71 -45 -35 -34 -39 -33 -50 18 l-7 32
-69 0 -69 0 0 -320 0 -320 90 0 90 0 0 193 c0 105 5 209 10 229 15 54 61 88
119 88 58 0 87 -20 101 -68 5 -20 10 -128 10 -239 l0 -203 85 0 85 0 0 248 c0
268 -6 298 -61 349 -56 51 -177 69 -263 38z"/>
<path d="M8507 2156 c-146 -54 -215 -197 -188 -390 26 -189 137 -270 346 -254
35 3 81 14 102 24 l38 19 3 74 c3 67 1 73 -15 66 -124 -54 -204 -57 -253 -10
-36 34 -54 107 -47 185 12 141 83 187 226 144 29 -8 54 -14 56 -12 2 2 14 31
28 65 l25 62 -41 17 c-56 23 -227 30 -280 10z"/>
<path d="M9110 2155 c-63 -20 -124 -75 -157 -143 -26 -52 -28 -67 -28 -167 0
-133 21 -189 95 -259 110 -103 310 -103 420 0 58 54 88 119 96 211 16 170 -62
312 -194 357 -56 19 -171 20 -232 1z m200 -153 c65 -66 68 -246 5 -319 -21
-25 -30 -28 -83 -28 -98 0 -132 48 -132 185 0 134 39 190 132 190 41 0 54 -5
78 -28z"/>
<path d="M1339 2045 c-88 -22 -168 -61 -180 -88 -9 -19 -5 -45 21 -133 17 -60
42 -128 55 -150 35 -60 113 -126 188 -160 39 -17 70 -38 76 -51 6 -14 44 -38
102 -64 50 -24 87 -45 81 -47 -29 -9 -263 96 -355 161 -65 45 -42 -19 69 -193
47 -74 95 -146 107 -158 27 -30 100 -67 147 -76 40 -7 105 -46 78 -46 -9 0
-45 9 -79 20 -35 10 -65 17 -67 15 -9 -9 32 -59 137 -165 101 -103 104 -108
60 -83 -80 43 -206 150 -292 248 -45 51 -86 89 -91 85 -5 -5 -11 -42 -14 -82
-4 -61 -7 -68 -14 -43 -4 17 -5 57 -2 90 7 72 -4 106 -69 194 -25 34 -69 102
-97 151 -28 50 -55 90 -60 90 -33 0 -61 -268 -43 -404 9 -59 8 -66 -4 -50 -21
28 -31 78 -42 211 -12 129 -10 146 31 290 13 45 19 83 14 103 -6 33 -55 150
-63 150 -31 0 -144 -147 -192 -251 -82 -175 -82 -366 -1 -545 59 -132 162
-232 320 -313 134 -69 232 -106 383 -146 218 -56 311 -69 517 -69 206 -1 313
15 402 60 82 42 77 61 -36 126 -97 56 -230 192 -278 283 -54 105 -76 183 -99
355 -40 305 -80 411 -204 536 -72 73 -118 102 -215 136 -73 26 -217 32 -291
13z"/>
</g>
</svg>
