<?xml version="1.0" encoding="UTF-8"?>
<svg xmlns="http://www.w3.org/2000/svg" xmlns:xlink="http://www.w3.org/1999/xlink" width="45px" height="40px" viewBox="0 0 44 40" version="1.1">
<g id="surface1">
<path style=" stroke:none;fill-rule:nonzero;fill:rgb(0%,0%,0%);fill-opacity:1;" d="M 13.652344 25.671875 C 13.421875 25.234375 13.148438 24.859375 13.082031 24.339844 C 14.507812 25.191406 15.902344 26.09375 17.574219 26.359375 C 17.113281 26.140625 16.636719 25.941406 16.1875 25.699219 C 15.8125 25.5 15.332031 25.421875 15.164062 24.925781 C 15.152344 24.882812 15.0625 24.863281 15.007812 24.839844 C 13.574219 24.308594 12.496094 23.425781 12.117188 21.84375 C 12.011719 21.40625 11.886719 20.976562 11.769531 20.546875 C 11.671875 20.1875 11.765625 19.953125 12.109375 19.765625 C 15.316406 17.980469 19.253906 19.613281 20.34375 23.175781 C 20.710938 24.378906 20.789062 25.625 20.953125 26.859375 C 21.28125 29.390625 22.503906 31.316406 24.671875 32.621094 C 24.875 32.742188 25.089844 32.851562 25.289062 32.976562 C 25.804688 33.300781 25.796875 33.566406 25.253906 33.867188 C 24.636719 34.210938 23.949219 34.347656 23.265625 34.453125 C 21.09375 34.789062 18.949219 34.5625 16.820312 34.113281 C 15.050781 33.742188 13.335938 33.183594 11.726562 32.347656 C 10.15625 31.535156 8.929688 30.351562 8.320312 28.640625 C 7.433594 26.148438 8.042969 23.917969 9.625 21.90625 C 9.871094 21.589844 10.082031 21.210938 10.570312 21.03125 C 10.894531 21.875 11.503906 22.628906 11.015625 23.605469 C 10.734375 24.167969 10.878906 24.847656 10.535156 25.390625 C 10.925781 26.554688 10.472656 27.886719 11.28125 29.035156 C 11.035156 27.320312 10.933594 25.679688 11.527344 24.058594 C 11.816406 24.167969 11.839844 24.394531 11.941406 24.566406 C 12.398438 25.351562 12.816406 26.171875 13.410156 26.855469 C 13.910156 27.429688 14.082031 28.070312 13.898438 28.746094 C 13.769531 29.222656 14 29.5625 14.0625 30.007812 C 14.210938 29.386719 13.890625 28.753906 14.285156 28.09375 C 15.734375 29.789062 17.199219 31.378906 19.300781 32.144531 C 17.886719 31.472656 17.019531 30.222656 16.027344 29.105469 C 16.046875 29.070312 16.066406 29.03125 16.089844 28.996094 C 16.648438 29.15625 17.207031 29.316406 17.84375 29.5 C 17.46875 29.121094 17.082031 29.007812 16.660156 28.910156 C 16.039062 28.769531 15.492188 28.457031 15.101562 27.90625 C 14.589844 27.191406 14.121094 26.453125 13.652344 25.671875 Z M 13.652344 25.671875 "/>
<path style=" stroke:none;fill-rule:nonzero;fill:rgb(0%,0%,0%);fill-opacity:1;" d="M 21.8125 16.074219 C 22.527344 15.683594 23.210938 15.203125 23.964844 14.851562 C 24.128906 14.773438 24.28125 14.609375 24.484375 14.765625 C 24.546875 14.816406 24.609375 14.792969 24.652344 14.742188 C 25.257812 14.011719 26.152344 13.996094 26.960938 13.769531 C 27.480469 13.625 27.976562 13.613281 28.484375 13.839844 C 28.929688 14.039062 29.40625 14.171875 29.863281 14.34375 C 30.484375 14.574219 30.527344 14.648438 30.460938 15.332031 C 30.230469 17.824219 28.234375 19.863281 25.765625 20.226562 C 24.121094 20.46875 22.644531 20.054688 21.210938 19.296875 C 20.457031 18.898438 19.730469 18.433594 18.933594 18.125 C 16.96875 17.363281 15.019531 17.347656 13.085938 18.226562 C 12.785156 18.363281 12.5 18.542969 12.191406 18.667969 C 11.765625 18.839844 11.546875 18.667969 11.589844 18.207031 C 11.664062 17.394531 11.941406 16.636719 12.320312 15.9375 C 14.296875 12.257812 17.167969 9.457031 20.816406 7.546875 C 22.988281 6.40625 25.273438 6.363281 27.398438 7.785156 C 28.96875 8.832031 29.832031 10.398438 30.261719 12.222656 C 30.320312 12.476562 30.460938 12.730469 30.386719 13.011719 C 29.789062 13.1875 28.53125 12.800781 28.191406 12.324219 C 27.878906 11.878906 27.570312 11.433594 27.128906 11.109375 C 26.933594 10.964844 26.925781 10.71875 26.792969 10.492188 C 26.574219 10.628906 26.414062 10.503906 26.226562 10.378906 C 25.382812 9.8125 24.523438 9.273438 23.476562 9.140625 C 24.941406 9.925781 26.351562 10.769531 27.316406 12.15625 C 27.230469 12.34375 27.125 12.320312 27.039062 12.308594 C 25.96875 12.191406 24.894531 12.164062 23.824219 12.203125 C 23.289062 12.226562 22.804688 12.175781 22.4375 11.691406 C 22.09375 11.234375 21.621094 10.953125 21.027344 10.953125 C 21.523438 11.300781 22.117188 11.542969 22.527344 12.171875 C 21.414062 12.355469 20.347656 12.433594 19.328125 12.734375 C 18.308594 13.035156 17.28125 13.328125 16.433594 14.058594 C 17.785156 13.410156 19.214844 13.222656 20.757812 13.121094 C 20.484375 13.625 19.945312 13.699219 19.730469 14.117188 C 19.878906 14.253906 20.003906 14.210938 20.121094 14.113281 C 20.207031 14.042969 20.285156 13.964844 20.367188 13.890625 C 20.992188 13.296875 21.683594 12.972656 22.582031 13.015625 C 23.734375 13.066406 24.886719 13.019531 26.023438 13.238281 C 26.082031 13.25 26.136719 13.28125 26.339844 13.355469 C 24.648438 14.101562 23.058594 14.789062 21.8125 16.074219 Z M 21.8125 16.074219 "/>
<path style=" stroke:none;fill-rule:nonzero;fill:rgb(0%,0%,0%);fill-opacity:1;" d="M 33.628906 22.5625 C 33.90625 21.234375 33.828125 19.960938 33.496094 18.6875 C 34.003906 20.828125 33.25 22.695312 32.308594 24.53125 C 32.15625 23.699219 32.070312 22.867188 31.734375 22.089844 C 31.980469 22.714844 31.726562 23.367188 31.917969 24.019531 C 32.113281 24.6875 32.035156 25.398438 31.644531 26.054688 C 31.042969 27.066406 30.46875 28.101562 29.71875 29.015625 C 29.648438 29.101562 29.609375 29.214844 29.386719 29.226562 C 29.597656 27.378906 29.773438 25.53125 29.199219 23.71875 C 29.355469 24.496094 29.328125 25.28125 29.304688 26.0625 C 29.296875 26.289062 29.257812 26.511719 29.242188 26.734375 C 29.230469 26.902344 29.175781 27.015625 28.964844 26.945312 C 29.359375 28.238281 28.898438 29.378906 28.355469 30.421875 C 27.933594 31.230469 27.0625 31.710938 26.339844 32.277344 C 26.171875 32.402344 26.011719 32.304688 25.859375 32.199219 C 23.609375 30.679688 22.792969 27.765625 23.851562 25.234375 C 24.460938 23.785156 25.480469 22.746094 26.769531 21.929688 C 27.558594 21.429688 28.378906 20.972656 29.09375 20.359375 C 30.753906 18.941406 31.761719 17.183594 31.851562 14.945312 C 31.863281 14.703125 31.890625 14.464844 31.925781 14.226562 C 31.984375 13.832031 32.167969 13.726562 32.515625 13.917969 C 32.878906 14.121094 33.160156 14.429688 33.425781 14.746094 C 34.566406 16.097656 35.269531 17.6875 35.847656 19.339844 C 36.738281 21.898438 37.203125 24.542969 37.09375 27.257812 C 36.972656 30.335938 35.167969 33.027344 31.882812 33.625 C 30.515625 33.871094 29.179688 33.675781 27.875 33.222656 C 27.597656 33.125 27.515625 32.960938 27.730469 32.730469 C 28.03125 32.402344 28.34375 32.085938 28.65625 31.773438 C 28.734375 31.695312 28.839844 31.609375 28.9375 31.601562 C 29.8125 31.53125 30.640625 31.171875 31.558594 31.121094 C 31.519531 30.882812 31.753906 30.851562 31.933594 30.757812 C 32.734375 30.339844 33.523438 29.898438 34.167969 29.246094 C 34.269531 29.140625 34.425781 29.066406 34.441406 28.855469 C 33.042969 29.832031 31.589844 30.625 29.902344 30.792969 C 29.796875 30.605469 29.894531 30.523438 29.953125 30.433594 C 30.558594 29.554688 31.183594 28.675781 31.609375 27.695312 C 31.933594 26.949219 32.542969 26.765625 33.199219 26.609375 C 33.457031 26.550781 33.726562 26.496094 34.015625 26.582031 C 33.867188 26.441406 33.53125 26.460938 33.773438 26.101562 C 33.238281 26.257812 32.847656 26.660156 32.230469 26.558594 C 32.8125 25.25 33.351562 23.972656 33.628906 22.5625 Z M 33.628906 22.5625 "/>
</g>
</svg>
